<?xml version="1.0" encoding="UTF-8" standalone="no"?>
<svg
  xmlns:dc="http://purl.org/dc/elements/1.1/"
  xmlns:cc="http://creativecommons.org/ns#"
  xmlns:rdf="http://www.w3.org/1999/02/22-rdf-syntax-ns#"
  xmlns:svg="http://www.w3.org/2000/svg"
  xmlns="http://www.w3.org/2000/svg"
  id="facebook"
  width="32"
  height="32"
  viewBox="0 0 32 32"
  version="1.1"
>
  <metadata id="metadata">
    <rdf:RDF>
      <cc:Work rdf:about="">
        <dc:format>image/svg+xml</dc:format>
        <dc:type rdf:resource="http://purl.org/dc/dcmitype/StillImage" />
        <dc:title>facebook</dc:title>
      </cc:Work>
    </rdf:RDF>
  </metadata>
  <title id="title">facebook</title>
  <defs id="defs" />
  <path
    id="path"
    d="M 28.448333,2 H 3.5516667 A 1.5633333,1.5633333 0 0 0 2,3.5516667 V 28.448333 A 1.5633333,1.5633333 0 0 0 3.5516667,30 H 16.956667 V 19.173333 h -3.64 v -4.235 h 3.64 v -3.115 c 0,-3.6166663 2.205,-5.588333 5.448333,-5.588333 1.085,0 2.17,0 3.255,0.1633333 v 3.7683337 h -2.228333 c -1.761667,0 -2.1,0.84 -2.1,2.065 v 2.695 h 4.2 l -0.548334,4.235 H 21.331667 V 30 h 7.116666 A 1.5633333,1.5633333 0 0 0 30,28.448333 V 3.5516667 A 1.5633333,1.5633333 0 0 0 28.448333,2 Z"
    fill="currentColor"
  />
</svg>
