<?xml version="1.0" encoding="UTF-8" standalone="no"?>
<svg
  xmlns:dc="http://purl.org/dc/elements/1.1/"
  xmlns:cc="http://creativecommons.org/ns#"
  xmlns:rdf="http://www.w3.org/1999/02/22-rdf-syntax-ns#"
  xmlns:svg="http://www.w3.org/2000/svg"
  xmlns="http://www.w3.org/2000/svg"
  id="instagram"
  width="32"
  height="32"
  viewBox="0 0 32 32"
  version="1.1"
>
  <metadata id="metadata">
    <rdf:RDF>
      <cc:Work rdf:about="">
        <dc:format>image/svg+xml</dc:format>
        <dc:type rdf:resource="http://purl.org/dc/dcmitype/StillImage" />
        <dc:title>instagram</dc:title>
      </cc:Work>
    </rdf:RDF>
  </metadata>
  <title id="title">instagram</title>
  <defs id="defs" />
  <circle id="circle1" cx="22.4056" cy="9.5944" r="1.44" fill="currentColor" />
  <path
    id="path1"
    d="M16,9.8378A6.1622,6.1622,0,1,0,22.1622,16,6.1622,6.1622,0,0,0,16,9.8378ZM16,20a4,4,0,1,1,4-4A4,4,0,0,1,16,20Z"
    fill="currentColor"
  />
  <path
    id="path2"
    d="M16,6.1622c3.2041,0,3.5837.0122,4.849.07a6.6418,6.6418,0,0,1,2.2283.4132,3.9748,3.9748,0,0,1,2.2774,2.2774,6.6418,6.6418,0,0,1,.4132,2.2283c.0577,1.2653.07,1.6449.07,4.849s-.0122,3.5837-.07,4.849a6.6418,6.6418,0,0,1-.4132,2.2283,3.9748,3.9748,0,0,1-2.2774,2.2774,6.6418,6.6418,0,0,1-2.2283.4132c-1.2652.0577-1.6446.07-4.849.07s-3.5838-.0122-4.849-.07a6.6418,6.6418,0,0,1-2.2283-.4132,3.9748,3.9748,0,0,1-2.2774-2.2774,6.6418,6.6418,0,0,1-.4132-2.2283c-.0577-1.2653-.07-1.6449-.07-4.849s.0122-3.5837.07-4.849a6.6418,6.6418,0,0,1,.4132-2.2283A3.9748,3.9748,0,0,1,8.9227,6.6453a6.6418,6.6418,0,0,1,2.2283-.4132c1.2653-.0577,1.6449-.07,4.849-.07M16,4c-3.259,0-3.6677.0138-4.9476.0722A8.8068,8.8068,0,0,0,8.14,4.63,6.1363,6.1363,0,0,0,4.63,8.14a8.8068,8.8068,0,0,0-.5578,2.9129C4.0138,12.3323,4,12.741,4,16s.0138,3.6677.0722,4.9476A8.8074,8.8074,0,0,0,4.63,23.8605a6.1363,6.1363,0,0,0,3.51,3.51,8.8068,8.8068,0,0,0,2.9129.5578C12.3323,27.9862,12.741,28,16,28s3.6677-.0138,4.9476-.0722a8.8074,8.8074,0,0,0,2.9129-.5578,6.1363,6.1363,0,0,0,3.51-3.51,8.8074,8.8074,0,0,0,.5578-2.9129C27.9862,19.6677,28,19.259,28,16s-.0138-3.6677-.0722-4.9476A8.8068,8.8068,0,0,0,27.37,8.14a6.1363,6.1363,0,0,0-3.51-3.5095,8.8074,8.8074,0,0,0-2.9129-.5578C19.6677,4.0138,19.259,4,16,4Z"
    fill="currentColor"
  />
</svg>
