<?xml version="1.0" encoding="UTF-8" standalone="no"?>
<svg
  xmlns:dc="http://purl.org/dc/elements/1.1/"
  xmlns:cc="http://creativecommons.org/ns#"
  xmlns:rdf="http://www.w3.org/1999/02/22-rdf-syntax-ns#"
  xmlns:svg="http://www.w3.org/2000/svg"
  xmlns="http://www.w3.org/2000/svg"
  id="instagram"
  width="32"
  height="32"
  viewBox="0 0 32 32"
  version="1.1"
>
  <metadata id="metadata">
    <rdf:RDF>
      <cc:Work rdf:about="">
        <dc:format>image/svg+xml</dc:format>
        <dc:type rdf:resource="http://purl.org/dc/dcmitype/StillImage" />
        <dc:title>instagram</dc:title>
      </cc:Work>
    </rdf:RDF>
  </metadata>
  <title id="title">instagram</title>
  <defs id="defs" />
  <circle id="circle" cx="23.4732" cy="8.5268002" r="1.6800001" fill="currentColor" />
  <path
    id="path1"
    d="M 16,8.8107667 A 7.1892333,7.1892333 0 1 0 23.189233,16 7.1892333,7.1892333 0 0 0 16,8.8107667 Z M 16,20.666667 A 4.6666667,4.6666667 0 1 1 20.666667,16 4.6666667,4.6666667 0 0 1 16,20.666667 Z"
    fill="currentColor"
  />
  <path
    id="path2"
    d="m 16,4.5225667 c 3.738117,0 4.180983,0.014233 5.657167,0.081667 A 7.7487667,7.7487667 0 0 1 24.25685,5.0863 4.6372667,4.6372667 0 0 1 26.913817,7.7432667 7.7487667,7.7487667 0 0 1 27.395883,10.34295 c 0.06732,1.476183 0.08167,1.91905 0.08167,5.657167 0,3.738116 -0.01423,4.180983 -0.08167,5.657166 A 7.7487667,7.7487667 0 0 1 26.913817,24.256967 4.6372667,4.6372667 0 0 1 24.25685,26.913933 7.7487667,7.7487667 0 0 1 21.657167,27.396 C 20.1811,27.46332 19.738467,27.47767 16,27.47767 c -3.738467,0 -4.1811,-0.01423 -5.657167,-0.08167 A 7.7487667,7.7487667 0 0 1 7.74315,26.913933 4.6372667,4.6372667 0 0 1 5.0861833,24.256967 7.7487667,7.7487667 0 0 1 4.6041167,21.657283 C 4.5368,20.1811 4.52245,19.738233 4.52245,16.000117 4.52245,12.262 4.536683,11.819133 4.604117,10.34295 A 7.7487667,7.7487667 0 0 1 5.0861833,7.7432667 4.6372667,4.6372667 0 0 1 7.74315,5.0861833 7.7487667,7.7487667 0 0 1 10.342833,4.6041167 C 11.819017,4.5368 12.261883,4.52245 16,4.52245 M 16,2 C 12.197833,2 11.721017,2.0161 10.2278,2.084233 A 10.2746,10.2746 0 0 0 6.83,2.735 7.1590167,7.1590167 0 0 0 2.735,6.83 10.2746,10.2746 0 0 0 2.0842333,10.228383 C 2.0161,11.721017 2,12.197833 2,16 c 0,3.802167 0.0161,4.278983 0.084233,5.7722 a 10.2753,10.2753 0 0 0 0.650767,3.398383 7.1590167,7.1590167 0 0 0 4.095,4.095 10.2746,10.2746 0 0 0 3.398383,0.650767 C 11.721017,29.9839 12.197833,30 16,30 c 3.802167,0 4.278983,-0.0161 5.7722,-0.08423 a 10.2753,10.2753 0 0 0 3.398383,-0.650767 7.1590167,7.1590167 0 0 0 4.095,-4.095 10.2753,10.2753 0 0 0 0.650767,-3.398383 C 29.9839,20.278983 30,19.802167 30,16 30,12.197833 29.9839,11.721017 29.915767,10.2278 A 10.2746,10.2746 0 0 0 29.265,6.83 7.1590167,7.1590167 0 0 0 25.17,2.7355833 10.2753,10.2753 0 0 0 21.771617,2.0848167 C 20.278983,2.0161 19.802167,2 16,2 Z"
    fill="currentColor"
  />
</svg>
