<?xml version="1.0" encoding="UTF-8" standalone="no"?>
<svg
  xmlns:dc="http://purl.org/dc/elements/1.1/"
  xmlns:cc="http://creativecommons.org/ns#"
  xmlns:rdf="http://www.w3.org/1999/02/22-rdf-syntax-ns#"
  xmlns:svg="http://www.w3.org/2000/svg"
  xmlns="http://www.w3.org/2000/svg"
  width="172"
  height="32"
  viewBox="0 0 172 32"
  version="1.1"
  id="logo"
>
  <defs id="defs" />
  <metadata id="metadata">
    <rdf:RDF>
      <cc:Work rdf:about="">
        <dc:format>image/svg+xml</dc:format>
        <dc:type rdf:resource="http://purl.org/dc/dcmitype/StillImage" />
        <dc:title></dc:title>
      </cc:Work>
    </rdf:RDF>
  </metadata>
  <path
    id="path1"
    d="M 16.155556,4.9555552 H 26.733333 V 2 h 0.311111 V 4.9555552 H 30 V 5.2666663 H 27.044444 V 15.844443 H 30 v 0.311112 H 27.044444 V 26.733332 H 30 v 0.31111 h -2.955556 v 2.955555 H 26.733333 V 27.044442 H 16.155556 v 2.955555 H 15.844444 V 27.044442 H 5.2666666 v 2.955555 H 4.9555555 V 27.044442 H 2 v -0.31111 H 4.9555555 V 16.155555 H 2 V 15.844443 H 4.9555555 V 5.2666663 H 2 V 4.9555552 H 4.9555555 V 2 H 5.2666666 V 4.9555552 H 15.844444 V 2 h 0.311112 z M 5.2666666,15.844443 H 14.444444 V 8.2222216 H 5.2666666 Z m 12.2888874,0 h 9.177779 V 8.2222216 h -9.177779 z m 0,0.311112 v 10.577777 h 9.177779 V 16.155555 Z m -3.11111,10.577777 V 16.155555 H 5.2666666 v 10.577777 z"
    fill="currentColor"
  />
  <path
    id="path2"
    d="m 43.844445,17.555556 h -7.622223 v 9.177778 h 7.622223 z m 0.311111,0 v 9.177778 h 7.622222 V 17.555556 Z M 33.266667,14.071111 Q 33.811111,10.788888 36.3,8.3 38.788888,5.8111111 42.071112,5.2666667 H 33.266667 Z M 43.844445,8.2222223 q -3.126667,0.062222 -5.335557,2.2711117 -1.71111,1.71111 -2.146666,3.951111 h 7.482223 z M 45.928889,5.2666667 Q 49.211112,5.8111111 51.7,8.3 q 2.488889,2.488888 3.033334,5.771111 V 5.2666667 Z m 5.708889,9.1777783 Q 51.202223,12.204444 49.506666,10.493334 47.282222,8.2844445 44.155556,8.2222223 v 6.2222227 z m -18.682222,1.4 V 5.2666667 H 30 V 4.9555555 h 2.955556 V 2 h 0.311111 V 4.9555555 H 43.844445 V 2 h 0.311111 V 4.9555555 H 54.733334 V 2 h 0.311111 V 4.9555555 H 58 V 5.2666667 H 55.044445 V 15.844445 H 58 v 0.311111 H 55.044445 V 26.733334 H 58 v 0.311112 H 55.044445 V 30 H 54.733334 V 27.044446 H 44.155556 V 30 H 43.844445 V 27.044446 H 33.266667 V 30 H 32.955556 V 27.044446 H 30 v -0.311112 h 2.955556 V 16.155556 H 30 v -0.311111 z"
    fill="currentColor"
  />
  <path
    id="path3"
    d="M 72.155555,4.9555551 H 82.733334 V 2 h 0.311111 V 4.9555551 H 86 V 5.2666662 H 83.044445 V 15.844443 H 86 v 0.311111 H 83.044445 V 26.733331 H 86 v 0.311111 h -2.955555 v 2.955555 H 82.733334 V 27.044442 H 72.155555 v 2.955555 H 71.844444 V 27.044442 H 61.266666 v 2.955555 H 60.955555 V 27.044442 H 58 v -0.311111 h 2.955555 V 16.155554 H 58 v -0.311111 h 2.955555 V 5.2666662 H 58 V 4.9555551 h 2.955555 V 2 h 0.31111 V 4.9555551 H 71.844444 V 2 h 0.311111 z M 61.266666,15.844443 h 9.177778 V 8.2222214 h -9.177778 z m 12.28889,0 h 9.177778 V 8.2222214 h -9.177778 z m 0,0.311111 v 10.577777 h 9.177778 V 16.155554 Z M 70.444444,26.733331 V 16.155554 h -9.177778 v 10.577777 z"
    fill="currentColor"
  />
  <path
    id="path4"
    d="m 100.15556,4.955555 h 10.57778 V 2 h 0.3111 V 4.955555 H 114 v 0.311111 h -2.95556 V 15.844443 H 114 v 0.31111 h -2.95556 V 26.733329 H 114 v 0.311111 h -2.95556 v 2.955555 h -0.3111 V 27.04444 h -10.57778 v 2.955555 H 99.84445 V 27.04444 H 89.266667 v 2.955555 H 88.955556 V 27.04444 H 86 v -0.311111 h 2.955556 V 16.155553 H 86 v -0.31111 h 2.955556 V 5.266666 H 86 V 4.955555 h 2.955556 V 2 h 0.311111 V 4.955555 H 99.84445 V 2 h 0.31111 z M 89.266667,15.844443 H 98.44445 V 8.2222211 h -9.177783 z m 12.288893,0 h 9.17778 V 8.2222211 h -9.17778 z m 0,0.31111 v 10.577776 h 9.17778 V 16.155553 Z M 98.44445,26.733329 V 16.155553 h -9.177783 v 10.577776 z"
    fill="currentColor"
  />
  <path
    id="path5"
    d="M 116.95555,26.733334 V 16.155556 H 114 v -0.311111 h 2.95555 V 5.2666666 H 114 V 4.9555555 h 2.95555 V 2 h 0.3111 v 2.9555555 h 10.57779 V 2 h 0.31111 v 2.9555555 h 10.57779 V 2 h 0.3111 V 4.9555555 H 142 v 0.3111111 h -2.95556 V 15.844445 H 142 v 0.311111 h -2.95556 V 26.733334 H 142 v 0.311111 h -2.95556 V 30 h -0.3111 V 27.044445 H 128.15555 V 30 h -0.31111 V 27.044445 H 117.26666 V 30 h -0.31111 V 27.044445 H 114 V 26.733334 Z M 138.73334,14.071111 V 5.2666666 h -8.80446 q 3.28223,0.5444444 5.77112,3.0333333 2.48888,2.4888891 3.03334,5.7711111 z m 0,12.662223 V 17.928889 Q 138.18888,21.211111 135.7,23.7 q -2.48889,2.488889 -5.77112,3.033334 z M 128.15555,8.2222222 v 7.6222228 h 7.62223 q -0.0622,-3.126668 -2.27112,-5.351112 -2.22444,-2.2088886 -5.35111,-2.2711108 z m 0,7.9333338 v 7.622222 q 3.12667,-0.06221 5.35111,-2.286666 2.2089,-2.208889 2.27112,-5.335556 z m -10.88889,-2.084445 q 0.54445,-3.282222 3.03333,-5.7711111 2.48889,-2.4888889 5.77112,-3.0333333 h -8.80445 z m 8.80445,12.662223 Q 122.78888,26.188889 120.29999,23.7 q -2.48888,-2.488889 -3.03333,-5.771111 v 8.804445 z m -5.84889,-10.577778 q 0.0622,3.126667 2.28667,5.335556 2.20888,2.224444 5.33555,2.286666 v -7.622222 z m 0,-0.311111 h 7.62222 V 8.2222222 q -3.12667,0.062222 -5.33555,2.2711108 -2.22445,2.224444 -2.28667,5.351112 z"
    fill="currentColor"
  />
  <path
    id="path6"
    d="M 144.95556,26.733331 V 16.155554 H 142 v -0.311111 h 2.95556 V 5.2666663 H 142 V 4.9555552 h 2.95556 V 2 h 0.3111 v 2.9555552 h 10.57779 V 2 h 0.3111 v 2.9555552 h 10.57778 V 2 h 0.3111 V 4.9555552 H 170 v 0.3111111 h -2.95557 V 15.844443 H 170 v 0.311111 h -2.95557 V 26.733331 H 170 v 0.311111 h -2.95557 v 2.955554 h -0.3111 v -2.955554 h -10.57778 v 2.955554 h -0.3111 v -2.955554 h -10.57779 v 2.955554 h -0.3111 V 27.044442 H 142 V 26.733331 Z M 166.73333,14.071109 V 5.2666663 h -8.80445 q 3.28223,0.5444444 5.77111,3.0333329 2.48889,2.4888878 3.03334,5.7711098 z m 0,12.662222 v -8.804445 q -0.54445,3.282222 -3.03334,5.771111 -2.48888,2.488889 -5.77111,3.033334 z M 156.15555,8.2222215 v 7.6222215 h 7.62223 q -0.0622,-3.126667 -2.27112,-5.351111 -2.22445,-2.2088882 -5.35111,-2.2711105 z m 0,7.9333325 v 7.622221 q 3.12666,-0.06222 5.35111,-2.286667 2.2089,-2.208887 2.27112,-5.335554 z m -10.88889,-2.084445 q 0.54445,-3.282222 3.03334,-5.7711098 2.48889,-2.4888885 5.77111,-3.0333329 h -8.80445 z m 8.80445,12.662222 q -3.28222,-0.544445 -5.77111,-3.033334 -2.48889,-2.488889 -3.03334,-5.771111 v 8.804445 z m -5.84888,-10.577777 q 0.0622,3.126667 2.28666,5.335554 2.20889,2.224445 5.33556,2.286667 v -7.622221 z m 0,-0.311111 h 7.62222 V 8.2222215 q -3.12667,0.062222 -5.33556,2.2711105 -2.22446,2.224444 -2.28666,5.351111 z"
    fill="currentColor"
  />
</svg>
