<?xml version="1.0" encoding="UTF-8" standalone="no"?>
<svg
  xmlns:dc="http://purl.org/dc/elements/1.1/"
  xmlns:cc="http://creativecommons.org/ns#"
  xmlns:rdf="http://www.w3.org/1999/02/22-rdf-syntax-ns#"
  xmlns:svg="http://www.w3.org/2000/svg"
  xmlns="http://www.w3.org/2000/svg"
  id="phone"
  width="32"
  height="32"
  viewBox="0 0 32 32"
  version="1.1"
>
  <metadata id="metadata">
    <rdf:RDF>
      <cc:Work rdf:about="">
        <dc:format>image/svg+xml</dc:format>
        <dc:type rdf:resource="http://purl.org/dc/dcmitype/StillImage" />
        <dc:title>phone</dc:title>
      </cc:Work>
    </rdf:RDF>
  </metadata>
  <title id="title">phone</title>
  <defs id="defs" />
  <path
    id="path1"
    d="M26,29h-.17C6.18,27.87,3.39,11.29,3,6.23A3,3,0,0,1,5.76,3h5.51a2,2,0,0,1,1.86,1.26L14.65,8a2,2,0,0,1-.44,2.16l-2.13,2.15a9.37,9.37,0,0,0,7.58,7.6l2.17-2.15A2,2,0,0,1,24,17.35l3.77,1.51A2,2,0,0,1,29,20.72V26A3,3,0,0,1,26,29ZM6,5A1,1,0,0,0,5,6v.08C5.46,12,8.41,26,25.94,27A1,1,0,0,0,27,26.06V20.72l-3.77-1.51-2.87,2.85L19.88,22C11.18,20.91,10,12.21,10,12.12l-.06-.48,2.84-2.87L11.28,5Z"
    fill="currentColor"
  />
</svg>
